<svg width="16" height="16" viewBox="0 0 16 16" fill="none" xmlns="http://www.w3.org/2000/svg">
<path d="M12.875 3.875C13.0625 3.875 13.25 4.0625 13.25 4.25V4.625C13.25 4.83594 13.0625 5 12.875 5H12.5L11.9844 12.9453C11.9609 13.5312 11.4453 14 10.8594 14H5.11719C4.53125 14 4.01562 13.5312 3.99219 12.9453L3.5 5H3.125C2.91406 5 2.75 4.83594 2.75 4.625V4.25C2.75 4.0625 2.91406 3.875 3.125 3.875H5.04688L5.84375 2.5625C6.03125 2.25781 6.45313 2 6.80469 2H9.17188C9.52344 2 9.94531 2.25781 10.1328 2.5625L10.9297 3.875H12.875ZM6.80469 3.125L6.35938 3.875H9.61719L9.17188 3.125H6.80469ZM10.8594 12.875L11.3516 5H4.625L5.11719 12.875H10.8594Z" fill="white"/>
</svg>
