<svg width="14" height="20" viewBox="0 0 14 20" fill="none" xmlns="http://www.w3.org/2000/svg">
<path d="M13.8906 15.814C14.0273 15.9507 14.0273 16.1694 13.8906 16.2788L13.2617 16.9077C13.1523 17.0444 12.9336 17.0444 12.7969 16.9077L9.48828 13.5991C9.43359 13.5171 9.40625 13.4351 9.40625 13.353V12.9976C8.39453 13.8452 7.10938 14.3647 5.6875 14.3647C2.54297 14.3647 0 11.8218 0 8.67725C0 5.56006 2.54297 2.98975 5.6875 2.98975C8.80469 2.98975 11.375 5.56006 11.375 8.67725C11.375 10.0991 10.8281 11.4116 9.98047 12.396H10.3359C10.418 12.396 10.5 12.4507 10.582 12.5054L13.8906 15.814ZM5.6875 13.0522C8.09375 13.0522 10.0625 11.1108 10.0625 8.67725C10.0625 6.271 8.09375 4.30225 5.6875 4.30225C3.25391 4.30225 1.3125 6.271 1.3125 8.67725C1.3125 11.1108 3.25391 13.0522 5.6875 13.0522Z" fill="white"/>
</svg>
