<svg width="26" height="26" viewBox="0 0 26 26" fill="none" xmlns="http://www.w3.org/2000/svg">
<path fill-rule="evenodd" clip-rule="evenodd" d="M1.94736 2.14544C3.22323 0.776634 5.0476 0 7.22822 0H18.7705C20.9565 0 22.7816 0.776346 24.0567 2.1457C25.3266 3.50955 26 5.40597 26 7.56241V18.4376C26 20.5941 25.3266 22.4904 24.0566 23.8543C22.7812 25.2237 20.9559 26 18.7691 26H7.22822C5.04204 26 3.21731 25.2237 1.94256 23.8542C0.672962 22.4904 0 20.5939 0 18.4376V7.56241C0 5.40522 0.676465 3.50892 1.94736 2.14544ZM17.3135 9.01932C17.6565 8.56797 17.5686 7.92413 17.1173 7.58123C16.6659 7.23833 16.022 7.32625 15.6791 7.77759L8.68645 16.9818C8.34356 17.4331 8.43147 18.077 8.8828 18.4199C9.33415 18.7628 9.97801 18.6748 10.3209 18.2235L17.3135 9.01932Z" fill="#CEF739"/>
</svg>
